<!-- <svg id="Layer_1" data-name="Layer 1" xmlns="http://www.w3.org/2000/svg" viewBox="0 0 87.5 100"><defs><style>.cls-1{fill:#1697f6;}.cls-2{fill:#7bc6ff;}.cls-3{fill:#1867c0;}.cls-4{fill:#aeddff;}</style></defs><title>Artboard 46</title><polyline class="cls-1" points="43.75 0 23.31 0 43.75 48.32"/><polygon class="cls-2" points="43.75 62.5 43.75 100 0 14.58 22.92 14.58 43.75 62.5"/><polyline class="cls-3" points="43.75 0 64.19 0 43.75 48.32"/><polygon class="cls-4" points="64.58 14.58 87.5 14.58 43.75 100 43.75 62.5 64.58 14.58"/></svg> -->
<svg version="1.0" xmlns="http://www.w3.org/2000/svg"
 width="150.000000pt" height="36.000000pt" viewBox="0 0 138.000000 81.000000"
 preserveAspectRatio="xMidYMid meet">

<g transform="translate(0.000000,81.000000) scale(0.100000,-0.100000)"
fill="#000000" stroke="none">
<path d="M515 599 c-55 -13 -100 -46 -126 -92 -18 -33 -21 -50 -16 -99 l5 -60
-54 4 c-46 4 -55 2 -60 -14 -3 -10 -10 -18 -15 -18 -6 0 -8 -9 -4 -19 3 -11 1
-22 -5 -26 -13 -8 -13 -72 0 -80 5 -3 10 -20 10 -36 0 -45 41 -81 88 -78 20 2
89 -1 152 -5 118 -8 148 -3 202 36 14 10 20 9 35 -4 36 -32 62 -32 90 0 l26
30 39 -20 c33 -17 48 -19 96 -12 31 4 92 7 135 5 77 -2 79 -2 75 21 -2 12 -17
32 -35 43 -17 11 -41 38 -52 60 -11 22 -21 34 -21 28 0 -26 -18 -12 -24 19 -3
17 -11 37 -17 45 -14 16 -72 17 -101 2 -17 -9 -25 -7 -46 14 -22 23 -24 28
-11 43 8 9 27 23 44 30 16 7 23 13 14 14 -18 0 -84 -45 -113 -79 -13 -14 -31
-21 -54 -21 -34 0 -35 0 -29 38 5 27 4 33 -4 22 -9 -12 -10 -10 -6 8 8 34 -19
116 -50 153 -28 33 -79 60 -110 58 -10 -1 -36 -5 -58 -10z m119 -40 c15 -12
23 -25 18 -28 -5 -3 -13 -19 -19 -36 -14 -43 -29 -32 -25 20 2 24 -2 46 -8 50
-5 3 -10 0 -10 -8 0 -7 -18 -49 -40 -92 -22 -43 -40 -73 -40 -67 0 22 -32 12
-60 -18 l-28 -30 22 64 c12 35 39 84 60 109 25 31 33 47 24 50 -7 3 8 6 33 6
33 1 54 -5 73 -20z m63 -136 c42 -69 41 -104 -3 -152 -36 -41 -94 -68 -116
-55 -7 4 -33 12 -58 16 -92 18 -102 21 -107 35 -8 20 4 28 20 14 12 -9 16 -4
21 30 5 29 10 39 20 36 17 -7 106 50 106 66 0 7 5 5 10 -3 9 -13 14 -10 35 15
14 17 25 33 25 38 0 20 21 2 47 -40z m191 -86 l21 -22 -29 -59 c-17 -32 -30
-71 -31 -85 0 -14 -6 0 -13 31 -7 32 -16 61 -20 65 -4 5 -4 -6 0 -22 25 -92
-6 -166 -59 -146 -15 6 -27 15 -27 20 0 12 -89 19 -93 7 -7 -20 -24 5 -20 28
7 33 29 39 88 26 26 -6 50 -8 53 -5 3 3 0 5 -6 5 -7 0 -13 17 -14 38 -1 36 -1
36 -5 5 -5 -35 -15 -39 -59 -22 l-28 10 32 25 c18 14 39 39 47 55 12 23 22 29
49 29 20 0 40 8 51 20 23 26 37 25 63 -3z m-560 -29 c0 -16 -2 -27 -5 -24 -3
3 -12 1 -19 -5 -9 -7 -18 -5 -32 9 -17 17 -17 20 -3 38 23 31 58 20 59 -18z
m65 -3 c15 -51 23 -60 55 -70 18 -5 32 -13 32 -17 0 -4 13 -5 30 -2 19 4 38 1
52 -8 16 -10 30 -13 46 -7 12 5 22 4 22 0 0 -5 -6 -11 -14 -14 -23 -9 -26 -47
-5 -68 16 -16 23 -18 35 -8 8 6 17 10 19 7 3 -3 -2 -11 -11 -19 -17 -14 -68
-16 -262 -9 -85 2 -94 5 -112 28 -11 13 -20 35 -20 48 0 12 -4 26 -10 29 -15
9 -12 61 4 74 10 8 15 8 18 1 2 -6 16 -8 36 -4 29 6 32 10 32 41 0 30 3 34 22
31 15 -2 26 -13 31 -33z m645 0 c17 -37 15 -49 -10 -73 -20 -18 -25 -19 -42
-6 -11 8 -27 14 -35 14 -12 0 -11 -3 3 -13 12 -9 20 -31 24 -65 l5 -52 -31 0
c-48 0 -81 17 -88 44 -9 36 13 93 53 137 29 32 42 39 73 39 30 0 39 -5 48 -25z
m64 -90 c6 -14 26 -34 45 -45 18 -10 33 -26 33 -34 0 -12 -17 -15 -95 -13
l-95 2 0 27 c0 14 -3 34 -7 44 -4 12 -3 15 5 10 7 -4 24 2 38 13 35 28 62 26
76 -4z"/>
<path d="M671 349 c-16 -13 -18 -19 -8 -19 15 0 43 27 36 34 -2 3 -15 -4 -28
-15z"/>
<path d="M560 284 c-17 -9 -20 -14 -9 -14 9 0 22 7 29 15 15 18 13 18 -20 -1z"/>
<path d="M976 519 c-28 -28 -28 -30 -11 -49 9 -10 14 -23 11 -28 -7 -12 20
-36 33 -28 19 12 63 -39 76 -89 8 -28 14 -43 14 -34 2 40 -14 83 -42 110 l-30
30 27 -7 c23 -5 26 -3 26 21 0 14 5 35 10 45 7 13 7 21 -2 26 -6 4 -8 3 -4 -4
3 -6 2 -13 -4 -17 -5 -3 -10 -18 -10 -33 0 -25 -4 -27 -40 -29 -33 -1 -40 2
-40 18 0 11 -7 22 -15 25 -19 8 -20 24 -1 24 7 0 20 10 29 23 12 18 18 20 28
10 7 -7 17 -13 23 -13 5 0 1 7 -10 15 -26 19 -34 17 -68 -16z"/>
<path d="M800 494 c-14 -7 -25 -18 -24 -24 1 -5 2 -21 3 -34 1 -19 7 -25 36
-28 31 -4 37 0 50 25 14 28 13 31 -11 53 -14 13 -26 24 -27 23 -1 -1 -13 -7
-27 -15z m60 -42 c-6 -2 -10 -10 -10 -18 0 -9 -11 -14 -29 -14 -23 0 -30 5
-33 25 -4 18 0 26 13 30 11 4 19 11 19 17 0 5 11 0 25 -13 13 -13 20 -25 15
-27z"/>
</g>
</svg>
